<svg xmlns="http://www.w3.org/2000/svg" width="520" height="520" font-family="sans-serif" font-size="11">
<rect width="520" height="520" fill="white"/>
<text x="56" y="16" font-weight="bold">AIJ Case C 1D WD 0°: hit rate 40 %, FAC2 86 %, R 0.84, FB +0.02</text>
<line x1="56" y1="472" x2="496" y2="472" stroke="#444"/><line x1="56" y1="472" x2="56" y2="32" stroke="#444"/>
<line x1="56.0" y1="472.0" x2="496.0" y2="32.0" stroke="#888"/>
<line x1="56.0" y1="472.0" x2="496.0" y2="-78.0" stroke="#bbb" stroke-dasharray="4 3"/>
<line x1="56.0" y1="472.0" x2="496.0" y2="142.0" stroke="#bbb" stroke-dasharray="4 3"/>
<circle cx="215.6" cy="402.5" r="3" fill="#d62728" fill-opacity="0.8"/>
<circle cx="187.4" cy="365.6" r="3" fill="#1f77b4" fill-opacity="0.8"/>
<circle cx="214.4" cy="358.7" r="3" fill="#d62728" fill-opacity="0.8"/>
<circle cx="191.0" cy="400.1" r="3" fill="#d62728" fill-opacity="0.8"/>
<circle cx="194.5" cy="410.2" r="3" fill="#d62728" fill-opacity="0.8"/>
<circle cx="260.2" cy="140.3" r="3" fill="#d62728" fill-opacity="0.8"/>
<circle cx="300.1" cy="162.2" r="3" fill="#d62728" fill-opacity="0.8"/>
<circle cx="296.6" cy="134.3" r="3" fill="#d62728" fill-opacity="0.8"/>
<circle cx="230.9" cy="390.3" r="3" fill="#d62728" fill-opacity="0.8"/>
<circle cx="202.7" cy="394.7" r="3" fill="#d62728" fill-opacity="0.8"/>
<circle cx="196.8" cy="349.9" r="3" fill="#1f77b4" fill-opacity="0.8"/>
<circle cx="207.4" cy="339.6" r="3" fill="#1f77b4" fill-opacity="0.8"/>
<circle cx="207.4" cy="384.5" r="3" fill="#d62728" fill-opacity="0.8"/>
<circle cx="200.3" cy="423.3" r="3" fill="#d62728" fill-opacity="0.8"/>
<circle cx="287.2" cy="113.7" r="3" fill="#d62728" fill-opacity="0.8"/>
<circle cx="318.9" cy="153.4" r="3" fill="#1f77b4" fill-opacity="0.8"/>
<circle cx="317.7" cy="108.5" r="3" fill="#d62728" fill-opacity="0.8"/>
<circle cx="226.2" cy="381.9" r="3" fill="#d62728" fill-opacity="0.8"/>
<circle cx="187.4" cy="414.7" r="3" fill="#d62728" fill-opacity="0.8"/>
<circle cx="162.8" cy="364.8" r="3" fill="#1f77b4" fill-opacity="0.8"/>
<circle cx="165.1" cy="364.9" r="3" fill="#1f77b4" fill-opacity="0.8"/>
<circle cx="168.7" cy="388.6" r="3" fill="#d62728" fill-opacity="0.8"/>
<circle cx="205.0" cy="418.1" r="3" fill="#d62728" fill-opacity="0.8"/>
<circle cx="309.5" cy="91.9" r="3" fill="#d62728" fill-opacity="0.8"/>
<circle cx="343.5" cy="143.3" r="3" fill="#1f77b4" fill-opacity="0.8"/>
<circle cx="343.5" cy="93.9" r="3" fill="#d62728" fill-opacity="0.8"/>
<circle cx="214.4" cy="387.1" r="3" fill="#d62728" fill-opacity="0.8"/>
<circle cx="348.2" cy="72.0" r="3" fill="#d62728" fill-opacity="0.8"/>
<circle cx="391.6" cy="124.1" r="3" fill="#1f77b4" fill-opacity="0.8"/>
<circle cx="370.5" cy="81.1" r="3" fill="#1f77b4" fill-opacity="0.8"/>
<circle cx="202.7" cy="263.0" r="3" fill="#d62728" fill-opacity="0.8"/>
<circle cx="215.6" cy="264.6" r="3" fill="#d62728" fill-opacity="0.8"/>
<circle cx="225.0" cy="268.8" r="3" fill="#1f77b4" fill-opacity="0.8"/>
<circle cx="246.1" cy="242.8" r="3" fill="#1f77b4" fill-opacity="0.8"/>
<circle cx="254.3" cy="190.8" r="3" fill="#d62728" fill-opacity="0.8"/>
<circle cx="281.3" cy="134.4" r="3" fill="#d62728" fill-opacity="0.8"/>
<circle cx="310.7" cy="101.8" r="3" fill="#d62728" fill-opacity="0.8"/>
<circle cx="331.8" cy="75.9" r="3" fill="#d62728" fill-opacity="0.8"/>
<circle cx="219.1" cy="303.8" r="3" fill="#1f77b4" fill-opacity="0.8"/>
<circle cx="244.9" cy="260.7" r="3" fill="#1f77b4" fill-opacity="0.8"/>
<circle cx="283.7" cy="212.6" r="3" fill="#1f77b4" fill-opacity="0.8"/>
<circle cx="293.1" cy="171.9" r="3" fill="#d62728" fill-opacity="0.8"/>
<circle cx="311.8" cy="154.6" r="3" fill="#1f77b4" fill-opacity="0.8"/>
<circle cx="334.1" cy="153.0" r="3" fill="#1f77b4" fill-opacity="0.8"/>
<circle cx="371.7" cy="146.5" r="3" fill="#1f77b4" fill-opacity="0.8"/>
<circle cx="408.1" cy="127.5" r="3" fill="#1f77b4" fill-opacity="0.8"/>
<circle cx="232.0" cy="270.4" r="3" fill="#1f77b4" fill-opacity="0.8"/>
<circle cx="244.9" cy="238.3" r="3" fill="#1f77b4" fill-opacity="0.8"/>
<circle cx="268.4" cy="206.2" r="3" fill="#d62728" fill-opacity="0.8"/>
<circle cx="294.2" cy="166.5" r="3" fill="#d62728" fill-opacity="0.8"/>
<circle cx="315.4" cy="125.5" r="3" fill="#d62728" fill-opacity="0.8"/>
<circle cx="348.2" cy="104.1" r="3" fill="#d62728" fill-opacity="0.8"/>
<circle cx="381.1" cy="91.9" r="3" fill="#1f77b4" fill-opacity="0.8"/>
<circle cx="397.5" cy="79.0" r="3" fill="#1f77b4" fill-opacity="0.8"/>
<circle cx="236.7" cy="391.7" r="3" fill="#d62728" fill-opacity="0.8"/>
<circle cx="219.1" cy="383.7" r="3" fill="#d62728" fill-opacity="0.8"/>
<circle cx="188.6" cy="375.9" r="3" fill="#d62728" fill-opacity="0.8"/>
<circle cx="215.6" cy="269.1" r="3" fill="#d62728" fill-opacity="0.8"/>
<circle cx="230.9" cy="329.1" r="3" fill="#1f77b4" fill-opacity="0.8"/>
<circle cx="250.8" cy="301.6" r="3" fill="#1f77b4" fill-opacity="0.8"/>
<circle cx="183.9" cy="439.9" r="3" fill="#d62728" fill-opacity="0.8"/>
<circle cx="133.5" cy="397.0" r="3" fill="#1f77b4" fill-opacity="0.8"/>
<circle cx="165.1" cy="377.8" r="3" fill="#1f77b4" fill-opacity="0.8"/>
<circle cx="155.8" cy="380.3" r="3" fill="#1f77b4" fill-opacity="0.8"/>
<circle cx="159.3" cy="444.5" r="3" fill="#d62728" fill-opacity="0.8"/>
<circle cx="222.6" cy="283.7" r="3" fill="#1f77b4" fill-opacity="0.8"/>
<circle cx="237.9" cy="333.9" r="3" fill="#1f77b4" fill-opacity="0.8"/>
<circle cx="254.3" cy="323.1" r="3" fill="#1f77b4" fill-opacity="0.8"/>
<circle cx="193.3" cy="432.4" r="3" fill="#d62728" fill-opacity="0.8"/>
<circle cx="195.7" cy="433.0" r="3" fill="#d62728" fill-opacity="0.8"/>
<circle cx="172.2" cy="385.6" r="3" fill="#d62728" fill-opacity="0.8"/>
<circle cx="187.4" cy="358.1" r="3" fill="#1f77b4" fill-opacity="0.8"/>
<circle cx="209.7" cy="357.3" r="3" fill="#d62728" fill-opacity="0.8"/>
<circle cx="186.3" cy="394.2" r="3" fill="#d62728" fill-opacity="0.8"/>
<circle cx="239.1" cy="311.8" r="3" fill="#1f77b4" fill-opacity="0.8"/>
<circle cx="233.2" cy="318.9" r="3" fill="#1f77b4" fill-opacity="0.8"/>
<circle cx="246.1" cy="354.5" r="3" fill="#d62728" fill-opacity="0.8"/>
<circle cx="202.7" cy="413.3" r="3" fill="#d62728" fill-opacity="0.8"/>
<circle cx="186.3" cy="403.8" r="3" fill="#d62728" fill-opacity="0.8"/>
<circle cx="175.7" cy="388.9" r="3" fill="#d62728" fill-opacity="0.8"/>
<circle cx="176.9" cy="361.0" r="3" fill="#1f77b4" fill-opacity="0.8"/>
<circle cx="186.3" cy="365.4" r="3" fill="#1f77b4" fill-opacity="0.8"/>
<circle cx="207.4" cy="361.8" r="3" fill="#d62728" fill-opacity="0.8"/>
<circle cx="229.7" cy="356.1" r="3" fill="#d62728" fill-opacity="0.8"/>
<circle cx="253.2" cy="289.4" r="3" fill="#1f77b4" fill-opacity="0.8"/>
<circle cx="246.1" cy="390.3" r="3" fill="#d62728" fill-opacity="0.8"/>
<circle cx="201.5" cy="391.0" r="3" fill="#d62728" fill-opacity="0.8"/>
<circle cx="232.0" cy="405.3" r="3" fill="#d62728" fill-opacity="0.8"/>
<circle cx="247.3" cy="270.4" r="3" fill="#1f77b4" fill-opacity="0.8"/>
<circle cx="240.2" cy="404.7" r="3" fill="#d62728" fill-opacity="0.8"/>
<circle cx="261.4" cy="174.8" r="3" fill="#d62728" fill-opacity="0.8"/>
<circle cx="212.1" cy="210.0" r="3" fill="#d62728" fill-opacity="0.8"/>
<circle cx="210.9" cy="226.2" r="3" fill="#d62728" fill-opacity="0.8"/>
<circle cx="201.5" cy="236.8" r="3" fill="#d62728" fill-opacity="0.8"/>
<circle cx="201.5" cy="246.3" r="3" fill="#d62728" fill-opacity="0.8"/>
<circle cx="222.6" cy="252.7" r="3" fill="#d62728" fill-opacity="0.8"/>
<circle cx="239.1" cy="259.9" r="3" fill="#1f77b4" fill-opacity="0.8"/>
<circle cx="246.1" cy="267.3" r="3" fill="#1f77b4" fill-opacity="0.8"/>
<circle cx="246.1" cy="271.9" r="3" fill="#1f77b4" fill-opacity="0.8"/>
<circle cx="289.5" cy="182.8" r="3" fill="#1f77b4" fill-opacity="0.8"/>
<circle cx="250.8" cy="217.1" r="3" fill="#d62728" fill-opacity="0.8"/>
<circle cx="233.2" cy="258.5" r="3" fill="#1f77b4" fill-opacity="0.8"/>
<circle cx="241.4" cy="302.4" r="3" fill="#1f77b4" fill-opacity="0.8"/>
<circle cx="225.0" cy="337.4" r="3" fill="#1f77b4" fill-opacity="0.8"/>
<circle cx="242.6" cy="355.5" r="3" fill="#d62728" fill-opacity="0.8"/>
<circle cx="249.6" cy="359.1" r="3" fill="#d62728" fill-opacity="0.8"/>
<circle cx="249.6" cy="360.3" r="3" fill="#d62728" fill-opacity="0.8"/>
<circle cx="260.2" cy="357.8" r="3" fill="#d62728" fill-opacity="0.8"/>
<circle cx="283.7" cy="178.3" r="3" fill="#d62728" fill-opacity="0.8"/>
<circle cx="259.0" cy="218.1" r="3" fill="#d62728" fill-opacity="0.8"/>
<circle cx="237.9" cy="248.8" r="3" fill="#1f77b4" fill-opacity="0.8"/>
<circle cx="232.0" cy="280.6" r="3" fill="#1f77b4" fill-opacity="0.8"/>
<circle cx="235.6" cy="314.9" r="3" fill="#1f77b4" fill-opacity="0.8"/>
<circle cx="234.4" cy="348.8" r="3" fill="#d62728" fill-opacity="0.8"/>
<circle cx="254.3" cy="392.1" r="3" fill="#d62728" fill-opacity="0.8"/>
<circle cx="254.3" cy="371.9" r="3" fill="#d62728" fill-opacity="0.8"/>
<circle cx="254.3" cy="344.4" r="3" fill="#d62728" fill-opacity="0.8"/>
<circle cx="194.5" cy="429.4" r="3" fill="#d62728" fill-opacity="0.8"/>
<circle cx="206.2" cy="379.7" r="3" fill="#d62728" fill-opacity="0.8"/>
<circle cx="220.3" cy="348.4" r="3" fill="#1f77b4" fill-opacity="0.8"/>
<text x="276" y="508" text-anchor="middle">measured Vs / U_ref(0.1D)</text>
<text x="14" y="252" text-anchor="middle" transform="rotate(-90 14 252)">CFD |U| / U_inlet(1.5 m)</text>
</svg>