ISO-10303-21;
HEADER;
FILE_DESCRIPTION(('ViewDefinition [CoordinationView]'),'2;1');
FILE_NAME('a4_fire_doors.ifc','2026-07-14T00:00:00',(''),(''),'IfcOpenShell','IfcOpenShell','');
FILE_SCHEMA(('IFC4'));
ENDSEC;
DATA;
#1=IFCPROJECT('0A4Proj000000000000001',$,'A4E2E',$,$,$,$,$,$);
#2=IFCCARTESIANPOINT((0.,0.,0.));
#3=IFCAXIS2PLACEMENT3D(#2,$,$);
#4=IFCGEOMETRICREPRESENTATIONCONTEXT($,'Model',3,1.0E-05,#3,$);
#5=IFCSITE('0A4Site000000000000001',$,'S1',$,$,$,$,$,$,$,$,$,$,$);
#6=IFCBUILDING('0A4Bldg000000000000001',$,'B1',$,$,$,$,$,$,$,$,$);
#7=IFCBUILDINGSTOREY('0A4Sty400000000000001',$,'4F',$,$,$,$,$,$,$);
#8=IFCBUILDINGSTOREY('0A4Sty100000000000001',$,'1F',$,$,$,$,$,$,$);
#10=IFCDOOR('0A4DoorLow000000000001',$,'FireDoor-Low',$,$,$,$,$,$,$,$,$,$);
#11=IFCDOOR('0A4DoorHigh00000000001',$,'FireDoor-High',$,$,$,$,$,$,$,$,$,$);
#12=IFCDOOR('0A4Door1F0000000000001',$,'FireDoor-1F',$,$,$,$,$,$,$,$,$,$);
#20=IFCPROPERTYSINGLEVALUE('FireRating',$,IFCLABEL('30'),$);
#21=IFCPROPERTYSINGLEVALUE('FireRating',$,IFCLABEL('90'),$);
#22=IFCPROPERTYSINGLEVALUE('FireRating',$,IFCLABEL('45'),$);
#30=IFCPROPERTYSET('0A4Pset00000000000001',$,'Pset_DoorCommon',$,(#20));
#31=IFCPROPERTYSET('0A4Pset00000000000002',$,'Pset_DoorCommon',$,(#21));
#32=IFCPROPERTYSET('0A4Pset00000000000003',$,'Pset_DoorCommon',$,(#22));
#40=IFCRELDEFINESBYPROPERTIES('0A4RelP0000000000001',$,$,$,(#10),#30);
#41=IFCRELDEFINESBYPROPERTIES('0A4RelP0000000000002',$,$,$,(#11),#31);
#42=IFCRELDEFINESBYPROPERTIES('0A4RelP0000000000003',$,$,$,(#12),#32);
#50=IFCRELAGGREGATES('0A4RelA0000000000001',$,$,$,#1,(#5));
#51=IFCRELAGGREGATES('0A4RelA0000000000002',$,$,$,#5,(#6));
#52=IFCRELAGGREGATES('0A4RelA0000000000003',$,$,$,#6,(#7,#8));
#60=IFCRELCONTAINEDINSPATIALSTRUCTURE('0A4RelC0000000000001',$,$,$,(#10,#11),#7);
#61=IFCRELCONTAINEDINSPATIALSTRUCTURE('0A4RelC0000000000002',$,$,$,(#12),#8);
ENDSEC;
END-ISO-10303-21;
